<?xml version="1.0" encoding="UTF-8"?>
<svg width="77px" height="20px" viewBox="0 0 77 20" version="1.1" xmlns="http://www.w3.org/2000/svg"
     xmlns:xlink="http://www.w3.org/1999/xlink">
    <title>console_icon</title>
    <g id="IDE-端插件优化" stroke="none" stroke-width="1" fill="none" fill-rule="evenodd">
        <g id="Artboard" transform="translate(-2467.000000, -1470.000000)">
            <g id="console_icon" transform="translate(2467.000000, 1470.000000)">
                <rect id="Rectangle" fill="#087CFA" opacity="0.15" x="0" y="0" width="77" height="20" rx="4"></rect>
                <g id="Group-10" transform="translate(4.000000, 4.000000)">
                    <g id="Tongyi-colored-Copy">
                        <mask id="mask-2" fill="white">
                            <use xlink:href="#path-1"></use>
                        </mask>
                        <g id="Rectangle"></g>
                        <g id="Group" mask="url(#mask-2)">
                            <g transform="translate(0.879750, 0.891000)">
                                <g id="Group" stroke-width="1" fill="none" fill-rule="evenodd" transform="translate(0.939745, 0.241534)">
                                    <polygon id="Path" fill="#FFFFFF" fill-rule="nonzero" points="2.78775073 0 3.48525073 1.2075075 2.78775073 2.415 8.36400073 2.415 7.66725073 3.62175 2.23050073 3.62175 1.46325073 2.2935075"></polygon>
                                    <polygon id="Path" fill="#FFFFFF" fill-rule="nonzero" points="0 2.41424561 1.39425 2.41424561 4.1115 7.12349561 3.34575 8.45174561 0.69675075 8.45099561 1.39425 7.24350311 2.7885 7.24350311"></polygon>
                                    <polygon id="Path" fill="#FFFFFF" fill-rule="nonzero" points="3.48449936 8.45099268 4.18200086 9.65850018 6.96974936 4.82924268 7.66649936 6.03600018 9.06074936 6.03600018 7.73699936 3.74249268 6.20324936 3.74324341"></polygon>
                                </g>
                                <g id="Group" stroke-width="1" fill="none" fill-rule="evenodd" transform="translate(0.939745, 0.241534)">
                                    <polygon id="Path" fill="url(#linearGradient-3)" fill-rule="nonzero" points="2.78775073 0 3.48525073 1.2075075 2.78775073 2.415 8.36400073 2.415 7.66725073 3.62175 2.23050073 3.62175 1.46325073 2.2935075"></polygon>
                                    <polygon id="Path" fill="url(#linearGradient-4)" fill-rule="nonzero" points="0.69675075 8.45099634 1.39425 7.24350384 2.78775 7.24425384 0 2.41499634 1.3935 2.41499634 4.1115 7.12349634 3.34575 8.45174634"></polygon>
                                    <polygon id="Path" fill="url(#linearGradient-5)" fill-rule="nonzero" points="9.06150009 6.03675018 7.66725009 6.03675018 6.97050009 4.82924268 4.18200084 9.65850018 3.48525009 8.45174268 6.20325009 3.74324341 7.73700009 3.74249268"></polygon>
                                </g>
                                <path d="M10.20975,6.1567725 L9.0255,4.104765 L8.886,3.8632725 L9.513,2.7772725 C9.53475,2.7397725 9.54525,2.698515 9.54525,2.656515 C9.54525,2.6145075 9.53475,2.5732575 9.513,2.5357575 L8.81625,1.32825 C8.7945,1.29075 8.7645,1.2607575 8.72775,1.23975 C8.69175,1.21875 8.64975,1.2075075 8.607,1.2075075 L5.9579925,1.2075075 L5.3302425,0.12075825 C5.2874925,0.045758025 5.2072425,0 5.1209925,0 L3.7267425,0 C3.6839925,0 3.6419925,0.01124265 3.606,0.0322449 C3.5699925,0.053247075 3.5392425,0.0832395 3.5175,0.1207395 L2.3325,2.1735 L2.193,2.4142425 L0.93825,2.4142425 C0.8955,2.4142425 0.8535,2.425485 0.8175,2.4464925 C0.7815,2.4674925 0.75075,2.497485 0.729,2.534985 L0.032249475,3.7424925 C0.0104988,3.7799925 0,3.82125 0,3.86325 C0,3.9052575 0.010501125,3.9465075 0.032249475,3.9840075 L1.35675,6.278265 L0.729,7.365015 C0.70724925,7.402515 0.69675075,7.443765 0.69675075,7.4857725 C0.69675075,7.52775 0.7072515,7.569 0.729,7.6065 L1.42575,8.814075 C1.4475,8.851575 1.47825,8.8815 1.51425,8.9025 C1.55025,8.9235 1.59225,8.93475 1.635,8.93475 L4.28325,8.93475 L4.911,10.0215 C4.95375,10.0965 5.034,10.14225 5.12025,10.14225 L6.5145,10.14225 C6.55725,10.14225 6.59925,10.131075 6.63525,10.110075 C6.67125,10.089075 6.702,10.059075 6.72375,10.021575 L8.04825,7.727325 L9.303,7.727325 C9.3465,7.727325 9.38775,7.715325 9.42375,7.695075 C9.45975,7.674075 9.4905,7.644075 9.51225,7.606575 L10.209,6.399045 C10.23075,6.361545 10.24125,6.3202875 10.24125,6.27828 C10.24125,6.23628 10.2315,6.1942725 10.20975,6.1567725 Z M3.7275,0.2415345 L4.4249925,1.449045 L3.7275,2.655795 L9.30375,2.655795 L8.607,3.8625525 L3.17025,3.8625525 L2.4029925,2.53431 L3.7275,0.2415345 Z M4.2855,8.69325 L1.63725,8.6925 L2.3347425,7.4850225 L3.7289925,7.4850225 L0.9404925,2.65578 L2.3347425,2.65578 L3.0315,3.8632875 L5.05275,7.36503 L4.2855,8.69325 Z M8.60625,6.27753 L7.9095,5.0700225 L5.1217425,9.89925 L4.4242425,8.69175 L5.1217425,7.485 L7.1429925,3.9840075 L8.67675,3.9832575 L10.0005,6.276765 L8.60625,6.276765 L8.60625,6.27753 Z" id="Shape" fill="url(#linearGradient-6)" fill-rule="nonzero"></path>
                                <path d="M10.20975,6.1567725 L9.0255,4.104765 L8.886,3.8632725 L9.513,2.7772725 C9.53475,2.7397725 9.54525,2.698515 9.54525,2.656515 C9.54525,2.6145075 9.53475,2.5732575 9.513,2.5357575 L8.81625,1.32825 C8.7945,1.29075 8.7645,1.2607575 8.72775,1.23975 C8.69175,1.21875 8.64975,1.2075075 8.607,1.2075075 L5.9579925,1.2075075 L5.3302425,0.12075825 C5.2874925,0.045758025 5.2072425,0 5.1209925,0 L3.7267425,0 C3.6839925,0 3.6419925,0.01124265 3.606,0.0322449 C3.5699925,0.053247075 3.5392425,0.0832395 3.5175,0.1207395 L2.3325,2.1735 L2.193,2.4142425 L0.93825,2.4142425 C0.8955,2.4142425 0.8535,2.425485 0.8175,2.4464925 C0.7815,2.4674925 0.75075,2.497485 0.729,2.534985 L0.032249475,3.7424925 C0.0104988,3.7799925 0,3.82125 0,3.86325 C0,3.9052575 0.010501125,3.9465075 0.032249475,3.9840075 L1.35675,6.278265 L0.729,7.365015 C0.70724925,7.402515 0.69675075,7.443765 0.69675075,7.4857725 C0.69675075,7.52775 0.7072515,7.569 0.729,7.6065 L1.42575,8.814075 C1.4475,8.851575 1.47825,8.8815 1.51425,8.9025 C1.55025,8.9235 1.59225,8.93475 1.635,8.93475 L4.28325,8.93475 L4.911,10.0215 C4.95375,10.0965 5.034,10.14225 5.12025,10.14225 L6.5145,10.14225 C6.55725,10.14225 6.59925,10.131075 6.63525,10.110075 C6.67125,10.089075 6.702,10.059075 6.72375,10.021575 L8.04825,7.727325 L9.303,7.727325 C9.3465,7.727325 9.38775,7.715325 9.42375,7.695075 C9.45975,7.674075 9.4905,7.644075 9.51225,7.606575 L10.209,6.399045 C10.23075,6.361545 10.24125,6.3202875 10.24125,6.27828 C10.24125,6.23628 10.2315,6.1942725 10.20975,6.1567725 Z M3.7275,0.2415345 L4.4249925,1.449045 L3.7275,2.655795 L9.30375,2.655795 L8.607,3.8625525 L3.17025,3.8625525 L2.4029925,2.53431 L3.7275,0.2415345 Z M4.2855,8.69325 L1.63725,8.6925 L2.3347425,7.4850225 L3.7289925,7.4850225 L0.9404925,2.65578 L2.3347425,2.65578 L3.0315,3.8632875 L5.05275,7.36503 L4.2855,8.69325 Z M8.60625,6.27753 L7.9095,5.0700225 L5.1217425,9.89925 L4.4242425,8.69175 L5.1217425,7.485 L7.1429925,3.9840075 L8.67675,3.9832575 L10.0005,6.276765 L8.60625,6.276765 L8.60625,6.27753 Z" id="Shape" fill="url(#linearGradient-7)" fill-rule="nonzero"></path>
                                <path d="M10.20975,6.1567725 L9.0255,4.104765 L8.886,3.8632725 L9.513,2.7772725 C9.53475,2.7397725 9.54525,2.698515 9.54525,2.656515 C9.54525,2.6145075 9.53475,2.5732575 9.513,2.5357575 L8.81625,1.32825 C8.7945,1.29075 8.7645,1.2607575 8.72775,1.23975 C8.69175,1.21875 8.64975,1.2075075 8.607,1.2075075 L5.9579925,1.2075075 L5.3302425,0.12075825 C5.2874925,0.045758025 5.2072425,0 5.1209925,0 L3.7267425,0 C3.6839925,0 3.6419925,0.01124265 3.606,0.0322449 C3.5699925,0.053247075 3.5392425,0.0832395 3.5175,0.1207395 L2.3325,2.1735 L2.193,2.4142425 L0.93825,2.4142425 C0.8955,2.4142425 0.8535,2.425485 0.8175,2.4464925 C0.7815,2.4674925 0.75075,2.497485 0.729,2.534985 L0.032249475,3.7424925 C0.0104988,3.7799925 0,3.82125 0,3.86325 C0,3.9052575 0.010501125,3.9465075 0.032249475,3.9840075 L1.35675,6.278265 L0.729,7.365015 C0.70724925,7.402515 0.69675075,7.443765 0.69675075,7.4857725 C0.69675075,7.52775 0.7072515,7.569 0.729,7.6065 L1.42575,8.814075 C1.4475,8.851575 1.47825,8.8815 1.51425,8.9025 C1.55025,8.9235 1.59225,8.93475 1.635,8.93475 L4.28325,8.93475 L4.911,10.0215 C4.95375,10.0965 5.034,10.14225 5.12025,10.14225 L6.5145,10.14225 C6.55725,10.14225 6.59925,10.131075 6.63525,10.110075 C6.67125,10.089075 6.702,10.059075 6.72375,10.021575 L8.04825,7.727325 L9.303,7.727325 C9.3465,7.727325 9.38775,7.715325 9.42375,7.695075 C9.45975,7.674075 9.4905,7.644075 9.51225,7.606575 L10.209,6.399045 C10.23075,6.361545 10.24125,6.3202875 10.24125,6.27828 C10.24125,6.23628 10.2315,6.1942725 10.20975,6.1567725 Z M3.7275,0.2415345 L4.4249925,1.449045 L3.7275,2.655795 L9.30375,2.655795 L8.607,3.8625525 L3.17025,3.8625525 L2.4029925,2.53431 L3.7275,0.2415345 Z M4.2855,8.69325 L1.63725,8.6925 L2.3347425,7.4850225 L3.7289925,7.4850225 L0.9404925,2.65578 L2.3347425,2.65578 L3.0315,3.8632875 L5.05275,7.36503 L4.2855,8.69325 Z M8.60625,6.27753 L7.9095,5.0700225 L5.1217425,9.89925 L4.4242425,8.69175 L5.1217425,7.485 L7.1429925,3.9840075 L8.67675,3.9832575 L10.0005,6.276765 L8.60625,6.276765 L8.60625,6.27753 Z" id="Shape" fill="url(#linearGradient-8)" fill-rule="nonzero"></path>
                            </g>
                        </g>
                    </g>
                    <text id="TooneCode" fill-rule="nonzero" font-family="SFPro-Regular, SF Pro" font-size="11" font-weight="normal" line-spacing="12" fill="#FFFFFF">
                        <tspan x="4" y="10">TooneCode</tspan>
                    </text>
                    <g id="右箭头-arrowright" transform="translate(57.000000, 0.000000)" fill="#FFFFFF" fill-rule="nonzero">
                        <rect id="Rectangle" opacity="0" x="0" y="0" width="12" height="12"></rect>
                        <path d="M7.42935937,3 L10.0074844,5.62514063 L10.0170938,5.63521875 C10.1839813,5.81554718 10.1833063,6.09413863 10.0155469,6.27365625 L7.43742187,9.03285938 L6.7524375,8.39282813 L8.5873125,6.42904688 L1.921875,6.42904688 L1.921875,5.49154688 L8.56228125,5.49154688 L6.7605,3.65685938 L7.42940625,3 L7.42935937,3 Z" id="Path"></path>
                    </g>
                </g>
            </g>
        </g>
    </g>
</svg>